<svg xmlns="http://www.w3.org/2000/svg" viewBox="0 0 369 369" width="369" height="369"
     style="fill-rule:evenodd;clip-rule:evenodd;stroke-linejoin:round;stroke-miterlimit:2;">
  <rect x="0" y="0" width="369" height="369" style="fill:rgb(0,175,240);fill-rule:nonzero;"/>
  <!-- Hairline so the tile keeps a visible edge on a near-black canvas. -->
  <rect x="3" y="3" width="363" height="363" fill="none" stroke="rgb(150,222,250)" stroke-width="6" stroke-opacity="0.55"/>
  <path d="M205.06,187.462L205.06,306.034L187.397,306.034L187.397,237.919L188.12,205.483L187.397,205.483L173.523,216.294L161.089,224.944L151.179,210.889L186.679,187.462L205.06,187.462Z" style="fill:white;fill-rule:nonzero;"/>
  <path d="M244.518,306.034L244.518,301.169C244.518,281.167 250.643,261.707 259.834,242.604L269.386,223.323L280.196,203.86L280.196,203.139C280.196,203.139 271.368,203.68 259.476,203.68L225.056,203.68L225.056,187.462L295.694,187.462L299.118,204.76L276.774,247.29C267.585,265.129 262.177,282.067 262.177,301.35L262.177,306.034L244.518,306.034Z" style="fill:white;fill-rule:nonzero;"/>
  <path d="M121.281,257.634C117.117,263.136 111.281,265.886 103.776,265.886C100.278,265.886 97.181,265.552 94.482,264.883C91.782,264.216 88.53,262.956 84.726,261.105L84.726,212.289C88.17,209.41 91.808,207.057 95.638,205.232C99.468,203.407 103.441,202.494 107.553,202.494C114.597,202.494 119.687,205.207 122.823,210.631C125.959,216.055 127.528,223.677 127.528,233.496C127.528,244.088 125.445,252.134 121.281,257.634ZM136.068,199.937C130.17,191.597 121.846,187.368 111.327,187.368C105.828,187.368 100.675,188.544 96.009,190.863C91.958,192.878 88.177,195.398 84.726,198.323L84.726,187.466L67.064,187.466L67.064,306.034L84.726,306.034L84.726,276.44C84.867,276.54 85.015,276.63 85.137,276.754L85.283,276.901L85.465,277C88.505,278.67 91.48,279.942 94.308,280.78C97.787,281.812 101.818,282.334 106.287,282.334C117.398,282.334 126.71,277.773 133.967,268.775C141.152,259.871 144.794,247.794 144.794,232.883C144.794,219.21 141.859,208.126 136.068,199.937Z" style="fill:white;fill-rule:nonzero;"/>
</svg>
